<svg width="24" height="24" viewBox="0 0 24 24" version="1.1" xmlns="http://www.w3.org/2000/svg"><path d="m 4.5878908,2.513672 c -1.1344127,0 -2.0742188,0.9398061 -2.0742188,2.0742188 V 17.425781 C 2.513672,18.560194 3.4534781,19.5 4.5878908,19.5 H 17.425781 C 18.560194,19.5 19.5,18.560194 19.5,17.425781 V 4.5878908 C 19.5,3.4534781 18.560194,2.513672 17.425781,2.513672 Z m 0,1.75 H 17.425781 c 0.195185,0 0.324219,0.1290339 0.324219,0.3242188 V 17.425781 C 17.75,17.620966 17.620966,17.75 17.425781,17.75 H 4.5878908 C 4.3927059,17.75 4.263672,17.620966 4.263672,17.425781 V 4.5878908 c 0,-0.1951849 0.1290339,-0.3242188 0.3242188,-0.3242188 z M 20.013672,4.6660158 V 17.814453 c 0,1.203022 -0.996197,2.199219 -2.199219,2.199219 H 4.6093751 c 0.2519858,0.859851 1.0594168,1.5 2.0019531,1.5 H 19.513672 c 1.140058,0 2.083984,-0.934998 2.083984,-2.064453 V 6.6660158 c 0,-0.9585077 -0.68128,-1.7740513 -1.583984,-2 z M 6.0000001,5.513672 C 5.7313811,5.5136057 5.5136057,5.7313811 5.513672,6.0000001 v 4.0273439 c -6.63e-5,0.268619 0.2177091,0.486394 0.4863281,0.486328 h 5.0273439 c 0.268619,6.6e-5 0.486394,-0.217709 0.486328,-0.486328 V 6.0000001 c 6.6e-5,-0.268619 -0.217709,-0.4863943 -0.486328,-0.4863281 z m 6.5136719,0.125 v 1.75 h 4 v -1.75 z M 6.4863282,6.4863282 H 10.541016 V 9.5410158 H 6.4863282 Z M 12.513672,9.013672 v 1 h 4 v -1 z m -7,3 v 1 h 11 v -1 z m 0,3 v 1 h 11 v -1 z" /></svg>
